<svg xmlns="http://www.w3.org/2000/svg" width="35.339" height="35.251" viewBox="0 0 35.339 35.251">
  <path id="Caminho_81" data-name="Caminho 81" d="M35.258,31.519a17.212,17.212,0,0,0-3.051-4.067A14.349,14.349,0,0,0,28.14,24.4a.745.745,0,0,0-.847.169l-2.2,2.2a1.828,1.828,0,0,1-1.525.508c-2.2,0-5.423-2.034-8.474-4.915-3.559-3.559-6.271-8.135-4.406-10l2.2-2.2c.169-.169.339-.678.169-.847a14.349,14.349,0,0,0-3.051-4.067A17.212,17.212,0,0,0,5.939,2.2a1.27,1.27,0,0,0-.847.169L.346,7.115C-.5,7.962.177,10.5,2.21,13.724a69.178,69.178,0,0,0,9.66,11.863c7.8,7.8,14.575,11.863,17.456,11.863a1.433,1.433,0,0,0,1.017-.339l4.745-4.745A.745.745,0,0,0,35.258,31.519Z" transform="translate(0.011 -2.2)" fill="#c5c5c5"/>
</svg>
